<svg y="251.5" x="521" height="287" width="237" viewBox="0 0 237 287" xmlns='http://www.w3.org/2000/svg' xmlns:xlink="http://www.w3.org/1999/xlink">
 <g transform="matrix(0.5071, 0, 0, 0.5071, -50, 288)">
  <rect fill="rgb(100%, 100%, 100%)" height="600" width="600" y="-600" x="0"/>
  <rect height="1" width="1" y="0" x="0" class="anchor"/>
  <g transform="matrix(1, 0, 0, 1, 360, 0)">
   <rect height="1" width="1" y="0" x="0" class="anchor"/>
  </g>
  <g transform="matrix(1, 0, 0, 1, 636.375, 680)">
   <g transform="matrix(1, 0, 0, 1, -4.8535, -317.5906)">
    <path d="m-4.747,-45.94l-0.885,0.48l-0.004,-0.57l0.889,0.09z" fill="rgb(100%, 64.7058823529412%, 0%)"/>
   </g>
  </g>
  <g transform="matrix(19.1503, 0, 0, 19.1503, 94.8181, -657.5025)">
   <use fill="rgb(90.5882352941177%, 7.05882352941176%, 14.1176470588235%)" xlink:href="#0"/>
  </g>
 </g>
 <defs>
  <path d="m22.37,-0.75c0,0.38 -0.15,0.69 -0.45,0.95c-0.3,0.25 -0.66,0.38 -1.08,0.38c-0.61,0 -1.12,-0.52 -1.53,-1.56c-0.41,-1.03 -0.66,-2.07 -0.75,-3.1c-0.09,-0.88 -0.18,-2.9 -0.27,-6.07c-0.05,-1.3 -0.05,-2.01 0,-2.12c-1.21,3.68 -2.83,7 -4.88,9.93c-2.05,2.94 -4.02,4.41 -5.9,4.41c-1.02,0 -1.87,-0.56 -2.56,-1.7c-0.68,-1.13 -1.2,-2.62 -1.55,-4.45c-0.34,-1.83 -0.52,-3.84 -0.52,-6.02c0,-1.76 0.11,-3.75 0.31,-5.97c0.21,-2.23 0.46,-3.81 0.75,-4.75c0.11,-0.37 0.28,-0.66 0.5,-0.88c0.22,-0.22 0.49,-0.33 0.82,-0.33c0.8,0 1.19,0.32 1.19,0.95c0,0.09 -0.21,0.92 -0.64,2.48c-0.43,1.56 -0.65,4.48 -0.65,8.74c0,2.82 0.25,5.09 0.76,6.82c0.51,1.73 1.16,2.6 1.96,2.6c0.84,0 1.9,-0.75 3.17,-2.25c1.27,-1.5 2.5,-3.33 3.68,-5.47c1.19,-2.14 2.04,-4 2.57,-5.56c0.36,-1.23 0.6,-3.03 0.71,-5.41c0.08,-1 0.17,-1.55 0.28,-1.66c0.22,-0.29 0.57,-0.43 1.05,-0.43c0.63,0 0.95,0.66 0.95,1.98c0,1.5 0.04,4.07 0.12,7.72c0.08,3.64 0.17,5.96 0.28,6.97c0.09,0.8 0.25,1.43 0.48,1.89c0.22,0.45 0.48,0.84 0.77,1.18c0.28,0.33 0.43,0.58 0.43,0.73z" id="1"/>
  <use transform="matrix(1, 0, 0, 1, 0, 30.94)" xlink:href="#1" id="0"/>
 </defs>
</svg>